<?xml version="1.0" encoding="iso-8859-1"?>
<!-- Generator: Adobe Illustrator 19.0.0, SVG Export Plug-In . SVG Version: 6.00 Build 0)  -->
<svg xmlns="http://www.w3.org/2000/svg" xmlns:xlink="http://www.w3.org/1999/xlink" version="1.1" id="Layer_1" x="0px" y="0px" viewBox="0 0 512 512" style="enable-background:new 0 0 512 512;" xml:space="preserve" width="512px" height="512px">
<g>
	<g>
		<path d="M408.849,106.334l-7.859-39.279C400.205,29.363,363.068,0,315.733,0C293.052,0,271.727,6.886,256,19.089    C240.273,6.886,218.948,0,196.267,0c-47.334,0-84.471,29.363-85.257,67.055l-7.859,39.279    c-10.889,9.395-17.818,23.262-17.818,38.733c0,28.237,22.963,51.2,51.2,51.2s51.2-22.963,51.2-51.2    c0-15.471-6.929-29.338-17.818-38.733l-7.689-38.451c0.478-5.888,12.399-16.683,34.039-16.683    c22.084,0,34.133,11.281,34.133,17.067V460.8c-23.526,0-42.667,19.149-42.667,42.667c0,4.719,3.814,8.533,8.533,8.533h119.467    c4.719,0,8.533-3.814,8.533-8.533c0-23.518-19.14-42.667-42.667-42.667V68.267c0-5.786,12.049-17.067,34.133-17.067    c21.632,0,33.562,10.795,34.039,16.683l-7.689,38.451c-10.889,9.395-17.818,23.262-17.818,38.733c0,28.237,22.963,51.2,51.2,51.2    s51.2-22.963,51.2-51.2C426.667,129.596,419.738,115.729,408.849,106.334z M150.144,95.761c-1.886-0.521-3.806-0.922-5.768-1.229    c-0.469-0.068-0.93-0.154-1.399-0.213c-2.116-0.265-4.258-0.452-6.443-0.452s-4.326,0.188-6.451,0.452    c-0.461,0.06-0.922,0.145-1.391,0.213c-1.963,0.307-3.883,0.708-5.769,1.229c-0.085,0.026-0.179,0.034-0.265,0.06l3.797-19.021    h20.156l3.797,19.021C150.323,95.795,150.229,95.787,150.144,95.761z M389.077,95.761c-1.886-0.521-3.806-0.922-5.769-1.229    c-0.469-0.068-0.93-0.154-1.399-0.213c-2.116-0.265-4.258-0.452-6.443-0.452s-4.326,0.188-6.451,0.452    c-0.461,0.06-0.922,0.145-1.391,0.213c-1.963,0.307-3.883,0.708-5.769,1.229c-0.085,0.026-0.179,0.034-0.265,0.06l3.797-19.021    h20.156l3.797,19.021C389.257,95.795,389.163,95.787,389.077,95.761z" fill="#FFFFFF"/>
	</g>
</g>
<g>
</g>
<g>
</g>
<g>
</g>
<g>
</g>
<g>
</g>
<g>
</g>
<g>
</g>
<g>
</g>
<g>
</g>
<g>
</g>
<g>
</g>
<g>
</g>
<g>
</g>
<g>
</g>
<g>
</g>
</svg>
